<?xml version="1.0" standalone="no"?>
<!DOCTYPE svg PUBLIC "-//W3C//DTD SVG 20010904//EN"
 "http://www.w3.org/TR/2001/REC-SVG-20010904/DTD/svg10.dtd">
<svg version="1.0" xmlns="http://www.w3.org/2000/svg"
 width="610.000000pt" height="578.000000pt" viewBox="0 0 610.000000 578.000000"
 preserveAspectRatio="xMidYMid meet">
<metadata>
Created by potrace 1.16, written by Peter Selinger 2001-2019
</metadata>
<g transform="translate(0.000000,578.000000) scale(0.100000,-0.100000)"
fill="#000000" stroke="none">
<path d="M2860 5739 c-1087 -78 -2024 -674 -2502 -1591 -218 -418 -332 -949
-299 -1391 15 -205 45 -383 92 -557 268 -993 1100 -1778 2155 -2035 77 -19
216 -47 310 -61 155 -25 193 -27 454 -27 261 0 300 2 455 27 321 51 587 128
848 246 897 404 1534 1213 1676 2130 50 323 49 567 -4 878 -205 1212 -1222
2166 -2509 2352 -254 37 -453 46 -676 29z m626 -374 c622 -93 1169 -370 1585
-801 348 -362 570 -805 650 -1299 32 -197 32 -509 0 -705 -82 -496 -304 -937
-655 -1298 -429 -441 -954 -705 -1601 -803 -215 -33 -583 -33 -800 0 -1079
162 -1926 871 -2195 1836 -60 216 -97 522 -85 710 45 705 350 1306 890 1757
430 359 977 577 1575 628 159 14 456 2 636 -25z"/>
<path d="M2825 5284 c-16 -3 -92 -14 -168 -24 -737 -105 -1412 -528 -1801
-1129 -171 -264 -284 -555 -338 -868 -18 -106 -22 -167 -22 -353 0 -253 16
-369 80 -597 19 -67 34 -144 34 -172 0 -45 3 -51 21 -51 14 0 25 -11 35 -38
36 -88 142 -285 206 -379 79 -118 239 -313 324 -394 417 -396 941 -645 1516
-718 295 -38 491 -35 779 9 997 153 1813 842 2068 1748 67 234 98 512 81 717
-34 426 -148 765 -372 1110 -335 517 -906 913 -1538 1066 -230 56 -351 70
-625 74 -137 2 -263 1 -280 -1z m1734 -793 c-6 -100 -10 -183 -8 -185 2 -3 56
7 118 20 63 14 120 23 127 22 7 -2 -6 -35 -37 -88 -27 -47 -49 -88 -49 -91 0
-3 51 -16 113 -28 138 -27 149 -30 142 -41 -3 -5 -48 -39 -100 -76 -52 -37
-95 -70 -95 -73 1 -3 57 -48 126 -99 69 -52 124 -96 121 -98 -2 -2 -70 1 -151
7 -80 7 -149 10 -152 7 -2 -3 14 -81 36 -173 22 -93 38 -171 35 -174 -3 -2
-39 28 -80 69 -41 40 -82 75 -91 76 -9 2 -31 17 -49 34 -18 18 -35 28 -38 23
-2 -4 -12 -71 -22 -148 -10 -77 -21 -144 -25 -148 -4 -5 -26 24 -47 65 -56
104 -116 208 -119 205 -1 -1 -27 -92 -58 -202 -32 -109 -61 -206 -66 -214 -10
-19 -12 -8 -41 229 -11 96 -22 176 -22 176 -1 1 -42 -27 -91 -62 -49 -35 -91
-63 -93 -61 -2 2 10 59 25 126 16 66 27 121 23 121 -3 0 -78 -9 -165 -20 -87
-12 -166 -20 -174 -18 -8 2 35 45 104 102 66 54 119 99 119 100 0 1 -49 46
-108 100 -60 54 -105 102 -100 106 4 4 62 20 128 34 66 15 121 29 123 31 2 2
-20 34 -50 72 -97 121 -229 305 -224 310 2 3 107 -58 232 -136 126 -77 230
-138 232 -137 1 2 16 60 33 130 17 69 35 124 39 121 5 -3 37 -50 72 -105 35
-55 65 -100 68 -100 3 1 30 42 60 92 30 50 60 96 65 102 6 6 35 51 64 99 29
49 55 86 58 84 2 -3 -1 -87 -8 -186z m-2434 -896 c32 -31 32 -67 0 -96 -28
-27 -31 -39 -11 -39 21 0 56 -49 56 -77 0 -67 -47 -93 -170 -93 -53 0 -90 4
-90 10 0 6 9 10 20 10 19 0 20 7 20 145 0 138 -1 145 -20 145 -11 0 -20 5 -20
10 0 6 38 10 95 10 88 0 98 -2 120 -25z m205 15 c0 -5 -9 -10 -20 -10 -19 0
-20 -7 -20 -121 0 -120 0 -121 29 -150 38 -37 88 -39 128 -5 27 23 28 29 31
126 4 113 -1 150 -23 150 -8 0 -15 5 -15 10 0 6 23 10 50 10 28 0 50 -4 50
-10 0 -5 -9 -10 -19 -10 -18 0 -20 -10 -23 -125 -3 -120 -4 -126 -30 -151 -31
-32 -101 -42 -166 -25 -61 17 -72 44 -72 181 0 103 -2 112 -20 117 -43 11 -17
23 50 23 40 0 70 -4 70 -10z m457 -10 c18 -11 35 -31 39 -45 8 -34 -11 -79
-42 -95 -13 -8 -24 -17 -24 -21 0 -16 104 -120 126 -125 41 -10 26 -24 -25
-24 -48 0 -51 2 -95 55 -25 30 -48 64 -51 75 -4 11 -15 20 -26 20 -17 0 -19
-7 -19 -61 0 -52 3 -62 20 -66 43 -11 17 -23 -50 -23 -40 0 -70 4 -70 10 0 6
9 10 20 10 19 0 20 7 20 145 0 138 -1 145 -20 145 -11 0 -20 5 -20 10 0 6 37
10 93 10 74 0 98 -4 124 -20z m370 0 c34 -20 51 -69 38 -110 -10 -33 -63 -60
-117 -60 l-48 0 0 -60 c0 -53 2 -60 20 -60 11 0 20 -4 20 -10 0 -6 -30 -10
-70 -10 -40 0 -70 4 -70 10 0 6 9 10 20 10 19 0 20 7 20 141 0 132 -1 141 -20
146 -48 13 -13 23 78 23 78 0 103 -4 129 -20z m-1587 -470 c0 -20 7 -20 1070
-20 1063 0 1070 0 1070 20 0 19 7 20 190 20 l190 0 0 -60 0 -60 -1390 0 -1390
0 0 60 0 60 130 0 c123 0 130 -1 130 -20z m334 -408 c-5 -17 57 -202 92 -274
10 -21 24 -38 31 -38 7 0 13 -4 13 -10 0 -6 -30 -10 -70 -10 -40 0 -70 4 -70
10 0 6 9 10 21 10 13 0 19 5 16 13 -2 6 -10 29 -18 50 l-13 37 -58 0 c-63 0
-65 -1 -82 -72 -6 -25 -4 -28 19 -28 14 0 25 -4 25 -10 0 -5 -25 -10 -55 -10
-30 0 -55 5 -55 10 0 6 6 10 14 10 8 0 40 61 81 153 60 137 84 177 106 177 4
0 5 -8 3 -18z m710 0 c-5 -17 57 -202 92 -274 10 -21 24 -38 31 -38 7 0 13 -4
13 -10 0 -6 -30 -10 -70 -10 -38 0 -70 4 -70 9 0 5 8 11 19 13 18 3 18 5 3 51
l-15 47 -59 0 c-63 0 -65 -1 -82 -72 -6 -25 -4 -28 19 -28 15 0 24 -4 20 -10
-3 -6 -50 -10 -105 -10 l-100 0 -41 53 c-23 28 -46 62 -52 75 -6 12 -18 22
-29 22 -15 0 -18 -8 -18 -61 0 -52 3 -62 20 -66 43 -11 17 -23 -50 -23 -40 0
-70 4 -70 10 0 6 9 10 20 10 19 0 20 7 20 145 0 138 -1 145 -20 145 -11 0 -20
5 -20 10 0 6 36 10 88 10 101 0 151 -19 166 -62 12 -35 -13 -93 -43 -103 -12
-3 -21 -11 -21 -16 0 -5 26 -37 58 -69 46 -47 64 -60 88 -60 30 0 32 4 98 153
61 137 85 177 107 177 4 0 5 -8 3 -18z m834 -7 c1 -1 0 -9 -3 -18 -5 -12 -13
-13 -38 -6 -18 5 -42 9 -54 9 -23 0 -23 -1 -23 -145 0 -138 1 -145 20 -145 11
0 20 -4 20 -10 0 -6 -30 -10 -70 -10 -40 0 -70 4 -70 10 0 6 9 10 20 10 20 0
20 5 18 143 l-3 142 -28 3 c-16 2 -42 -1 -59 -7 -26 -9 -29 -8 -24 5 3 9 6 19
6 23 0 7 280 3 288 -4z m-2209 -6 c32 -11 34 -17 22 -59 l-7 -25 -8 23 c-9 27
-54 52 -93 52 -69 -1 -123 -62 -123 -142 0 -93 39 -144 118 -155 55 -7 74 14
70 81 -3 47 -5 51 -30 54 -16 2 -28 8 -28 13 0 5 36 9 80 9 47 0 80 -4 80 -10
0 -5 -9 -10 -20 -10 -18 0 -20 -7 -20 -60 l0 -59 -52 -16 c-107 -31 -191 -12
-235 54 -38 56 -29 147 20 200 49 53 151 76 226 50z m241 1 c0 -5 -9 -10 -20
-10 -19 0 -20 -7 -20 -121 0 -120 0 -121 29 -150 38 -37 88 -39 127 -5 26 21
28 30 32 114 5 107 -3 162 -23 162 -8 0 -15 5 -15 10 0 6 23 10 50 10 28 0 50
-4 50 -10 0 -5 -9 -10 -20 -10 -19 0 -20 -7 -20 -112 0 -95 -3 -118 -20 -146
-31 -50 -96 -65 -182 -41 -57 15 -68 46 -68 179 0 103 -2 112 -20 117 -43 11
-17 23 50 23 40 0 70 -4 70 -10z m1444 -65 c31 -41 76 -97 101 -125 l45 -51 0
112 c0 102 -2 111 -20 116 -37 10 -20 23 30 23 28 0 50 -4 50 -10 0 -5 -9 -10
-20 -10 -19 0 -20 -7 -20 -155 0 -85 -4 -155 -8 -155 -5 0 -57 59 -117 130
-59 72 -110 128 -113 125 -3 -3 -7 -57 -10 -120 -4 -112 -4 -115 17 -115 11 0
21 -4 21 -10 0 -5 -22 -10 -50 -10 -27 0 -50 5 -50 10 0 6 9 10 20 10 18 0 20
7 21 63 0 34 2 89 5 122 6 71 -1 105 -21 105 -8 0 -15 5 -15 10 0 6 17 10 39
10 36 0 42 -4 95 -75z m816 56 c0 -16 -5 -17 -42 -10 -24 4 -55 8 -70 9 -27 0
-28 -1 -28 -60 l0 -60 50 0 c43 0 50 3 50 20 0 11 5 20 10 20 6 0 10 -25 10
-55 0 -30 -4 -55 -10 -55 -5 0 -10 11 -10 25 0 23 -3 25 -50 25 l-50 0 0 -75
0 -75 43 0 c23 1 60 7 82 15 22 8 41 15 42 15 2 0 -3 -11 -9 -25 -11 -25 -13
-25 -135 -25 -75 0 -123 4 -123 10 0 6 9 10 20 10 19 0 20 7 20 141 0 132 -1
141 -20 146 -51 13 -9 23 100 23 110 0 120 -1 120 -19z m288 2 c-2 -10 -11
-16 -19 -15 -8 2 -38 6 -66 9 l-53 6 0 -62 0 -61 50 0 c43 0 50 3 50 20 0 11
5 20 10 20 6 0 10 -25 10 -55 0 -30 -4 -55 -10 -55 -5 0 -10 11 -10 25 0 23
-3 25 -50 25 l-51 0 3 -72 3 -73 32 -3 c30 -3 73 6 116 23 16 7 16 5 6 -19
l-12 -26 -124 0 c-75 0 -123 4 -123 10 0 6 9 10 20 10 19 0 20 7 20 141 0 132
-1 141 -20 146 -51 13 -9 23 101 23 110 0 120 -2 117 -17z m612 -673 l0 -60
-1940 0 -1940 0 0 60 0 60 1940 0 1940 0 0 -60z"/>
<path d="M4668 4273 c-16 -2 -28 -10 -28 -16 -1 -7 -18 -41 -39 -77 l-39 -65
106 -20 107 -21 -83 -58 c-46 -32 -80 -62 -75 -66 58 -50 186 -131 203 -128
18 2 6 15 -59 63 -45 32 -80 64 -78 70 2 5 38 34 80 64 42 30 74 57 72 61 -2
4 -49 15 -104 25 -56 10 -101 22 -101 27 0 5 18 40 39 78 22 39 37 69 33 69
-4 -1 -19 -4 -34 -6z"/>
<path d="M4576 3763 c7 -32 13 -64 14 -70 0 -15 66 -90 90 -103 16 -9 16 -3
-2 73 -38 165 -34 157 -77 157 l-39 0 14 -57z"/>
</g>
</svg>
